<?xml version="1.0" standalone="no"?><!DOCTYPE svg PUBLIC "-//W3C//DTD SVG 1.1//EN" "http://www.w3.org/Graphics/SVG/1.1/DTD/svg11.dtd"><svg t="1695090937166" class="icon" viewBox="0 0 1024 1024" version="1.1" xmlns="http://www.w3.org/2000/svg" p-id="20718" xmlns:xlink="http://www.w3.org/1999/xlink" width="200" height="200"><path d="M512 0c282.76736 0 512 229.23264 512 512 0 282.7776-229.23264 512-512 512S0 794.7776 0 512C0 229.24288 229.23264 0 512 0z" fill="#324D5B" p-id="20719"/><path d="M532.48 0.52224C525.68064 0.256 518.87104 0 512 0s-13.6704 0.24576-20.48 0.52224V307.2h40.96V0.52224z" fill="#EDEDED" p-id="20720"/><path d="M491.52 307.2h20.48V0c-6.87104 0-13.6704 0.24576-20.48 0.52224V307.2z" fill="#CACACA" p-id="20721"/><path d="M919.71584 821.6064L794.88 552.96H229.76512L104.45824 821.83168C197.98016 944.66048 345.7024 1024 512 1024c166.4 0 314.20416-79.43168 407.71584-202.3936z" fill="#5B717C" p-id="20722"/><path d="M511.87712 675.9424c-143.01184 0-296.92928-38.74816-296.92928-123.84256 0-157.71648 133.20192-286.02368 296.92928-286.02368 163.71712 0 296.91904 128.3072 296.91904 286.02368 0 85.0944-153.91744 123.84256-296.91904 123.84256z" fill="#3DB39E" p-id="20723"/><path d="M317.34784 531.61984c0 85.0944 153.91744 123.84256 296.92928 123.84256a776.192 776.192 0 0 0 84.66432-4.63872c-54.19008 16.91648-121.68192 25.11872-187.06432 25.11872-143.01184 0-296.92928-38.74816-296.92928-123.84256 0-155.05408 128.74752-281.57952 288.6656-285.81888-109.056 42.36288-186.2656 145.29536-186.2656 265.33888z" fill="#37A18E" p-id="20724"/><path d="M804.47488 575.78496c-26.48064-50.64704-163.82976-73.94304-292.42368-73.94304-128.90112 0-266.58816 23.3984-292.62848 74.27072 26.112 68.39296 163.67616 99.82976 292.46464 99.82976 128.9728 0 266.8032-31.5392 292.58752-100.15744z" fill="#F4F0D3" p-id="20725"/><path d="M512.0512 501.83168c-128.90112 0-266.58816 23.3984-292.62848 74.27072l0.6656 1.50528c53.85216-30.68928 160.23552-45.056 261.24288-45.056 128.59392 0 265.94304 23.28576 292.42368 73.94304a73.216 73.216 0 0 1-6.49216 12.98432c17.89952-12.41088 30.91456-26.94144 37.21216-43.70432-26.48064-50.64704-163.84-73.94304-292.42368-73.94304z" fill="#E6E2C7" p-id="20726"/><path d="M512 604.16a92.16 92.16 0 0 1-92.16-92.16c0-2.05824 0.29696-4.03456 0.44032-6.05184 30.04416-2.70336 61.12256-4.10624 91.77088-4.10624 30.60736 0 61.66528 1.41312 91.66848 4.096 0.14336 2.01728 0.44032 4.00384 0.44032 6.06208a92.16 92.16 0 0 1-92.16 92.16z" fill="#EFC75E" p-id="20727"/><path d="M542.72 583.68c-46.71488 0-85.1968-34.77504-91.2384-79.83104-10.45504 0.6144-20.93056 1.16736-31.20128 2.0992-0.14336 2.01728-0.44032 3.9936-0.44032 6.05184a92.16 92.16 0 0 0 157.61408 64.86016A91.94496 91.94496 0 0 1 542.72 583.68z" fill="#E3BD59" p-id="20728"/></svg>